Coordinates
version=1
nRows=24
nColumns=24
inDegrees=yes

Units are S.I. units (second, meters, Newtons, ...)
Angles are in degrees.

endheader
time	pelvis_tilt	pelvis_list	pelvis_rotation	pelvis_tx	pelvis_ty	pelvis_tz	hip_flexion_r	hip_adduction_r	hip_rotation_r	knee_angle_r	ankle_angle_r	subtalar_angle_r	mtp_angle_r	hip_flexion_l	hip_adduction_l	hip_rotation_l	knee_angle_l	ankle_angle_l	subtalar_angle_l	mtp_angle_l	lumbar_extension	lumbar_bending	lumbar_rotation
      6.20000000	     -4.75431805	     -2.14565186	      0.32053466	     -1.16631791	      0.67002410	      0.19857699	      4.04576726	      8.53753028	     -4.39239129	     -9.09201986	     18.64118060	     -9.56361059	      0.00000000	     35.13379543	     -2.82111952	      0.86973400	    -46.27444370	      2.10645930	    -26.16936292	      0.00000000	     -9.95449010	     -3.26433470	      0.69698659
      6.21000000	     -4.37308132	     -2.30218816	      0.02315875	     -1.15842008	      0.66936058	      0.19885584	      2.86534611	      8.79725196	     -3.88275203	     -9.04310111	     19.06240245	     -9.93310634	      0.00000000	     34.97878403	     -3.12620883	      0.91713104	    -42.65640290	      2.89155985	    -24.17630463	      0.00000000	    -10.47580504	     -3.19771001	      1.04749934
      6.22000000	     -3.95192132	     -2.55776456	     -0.30355865	     -1.15033730	      0.66863740	      0.19913094	      1.59280796	      9.14718824	     -3.40100654	     -8.94148028	     19.39350981	    -10.28295039	      0.00000000	     34.59295321	     -3.55344073	      1.02983124	    -38.77479650	      3.61251892	    -21.52185305	      0.00000000	    -11.01561743	     -3.03754442	      1.41753979
      6.23000000	     -3.44709603	     -2.75443539	     -0.74240288	     -1.14196512	      0.66796586	      0.19938128	      0.15055693	      9.39981586	     -2.90091364	     -8.76239697	     19.85823955	    -10.43143377	      0.00000000	     33.82585069	     -3.94929009	      1.18469427	    -34.49560055	      3.94921106	    -19.00323094	      0.00000000	    -11.58703251	     -2.96470944	      2.03441552
      6.24000000	     -2.94022081	     -3.10577082	     -1.12555552	     -1.13339926	      0.66718653	      0.19952629	     -1.34452216	      9.78701430	     -2.54257381	     -8.51854941	     20.12962184	    -10.59081496	      0.00000000	     32.91763077	     -4.48373270	      1.50528949	    -30.04667430	      4.23571075	    -15.89416938	      0.00000000	    -12.12755942	     -2.68875470	      2.58016733
      6.25000000	     -2.37693915	     -3.39282346	     -1.63576826	     -1.12456769	      0.66644535	      0.19967190	     -2.94516989	     10.06163430	     -2.17107116	     -8.26612931	     20.55489023	    -10.56593919	      0.00000000	     31.64834990	     -4.96940011	      2.07132885	    -25.22566589	      4.03306595	    -13.50336388	      0.00000000	    -12.67100400	     -2.52457231	      3.37890077
      6.26000000	     -1.85271326	     -3.74534821	     -2.14270999	     -1.11552255	      0.66559814	      0.19978173	     -4.52922366	     10.37608645	     -1.91578435	     -8.01144502	     20.90636420	    -10.49676721	      0.00000000	     30.25034336	     -5.53393388	      2.94585456	    -20.25722085	      3.77355885	    -11.24353448	      0.00000000	    -13.11930663	     -2.28944520	      4.17551205
      6.27000000	     -1.40607814	     -4.12286933	     -2.71495635	     -1.10627110	      0.66463272	      0.19994666	     -6.04435221	     10.69195984	     -1.67959967	     -7.79070872	     21.25396159	    -10.39692381	      0.00000000	     28.76423120	     -6.19716093	      4.10837973	    -15.20534349	      3.47774582	     -9.45888001	      0.00000000	    -13.42334524	     -2.05219477	      5.06053072
      6.28000000	     -1.09561476	     -4.60406671	     -3.39814431	     -1.09687745	      0.66349814	      0.20024291	     -7.40517251	     11.09548908	     -1.36773280	     -7.66961185	     21.60829950	    -10.25946588	      0.00000000	     27.33345156	     -7.09751580	      5.40553369	    -10.30095233	      3.36209234	     -8.12970416	      0.00000000	    -13.53415470	     -1.72017214	      6.06764613
      6.29000000	     -0.73041505	     -4.93081052	     -4.10710182	     -1.08722419	      0.66243792	      0.20061665	     -8.82926590	     11.29919703	     -1.18771898	     -7.56964914	     21.85865023	    -10.17436257	      0.00000000	     25.78992299	     -7.94577269	      6.48882277	     -5.68799507	      3.30526302	     -7.20637358	      0.00000000	    -13.64489593	     -1.62254494	      7.04951407
      6.30000000	     -0.67970183	     -5.36800052	     -4.96000678	     -1.07758067	      0.66116846	      0.20111787	     -9.83595385	     11.59518112	     -0.88960563	     -7.70034287	     22.04851643	    -10.04978976	      0.00000000	     24.72087315	     -9.01130682	      7.01365401	     -1.78204536	      3.62926374	     -6.31638970	      0.00000000	    -13.39622915	     -1.38073311	      8.12041482
      6.31000000	     -0.56955668	     -5.61518292	     -5.86337951	     -1.06780213	      0.66012590	      0.20163460	    -10.85357994	     11.63415834	     -0.58827892	     -7.93489721	     22.17241468	     -9.94881630	      0.00000000	     23.67786973	     -9.86966625	      6.81818048	      1.43297488	      4.09636528	     -5.47910055	      0.00000000	    -13.19374664	     -1.38447932	      9.12179929
      6.32000000	     -0.39941222	     -5.64721508	     -6.74482691	     -1.05792575	      0.65935506	      0.20203101	    -11.84734121	     11.38520865	     -0.38574008	     -8.27239994	     22.09578198	     -9.97511697	      0.00000000	     22.77955752	    -10.38775733	      5.62380325	      3.71886354	      4.99543219	     -3.88565033	      0.00000000	    -13.04978592	     -1.62706931	      9.98841529
      6.33000000	     -0.46183776	     -5.63920383	     -7.68798976	     -1.04802601	      0.65858389	      0.20234225	    -12.48211162	     11.05726545	     -0.09172052	     -8.82111307	     21.99091954	     -9.84901598	      0.00000000	     22.25332455	    -10.79730873	      4.19396131	      5.18247722	      5.81102273	     -2.70063977	      0.00000000	    -12.63620108	     -1.85270330	     10.79019090
      6.34000000	     -0.59165050	     -5.59725797	     -8.58452665	     -1.03801800	      0.65790550	      0.20247735	    -12.96897293	     10.65729508	      0.17530335	     -9.49228549	     21.79123735	     -9.65260034	      0.00000000	     21.85242525	    -11.09896351	      3.17535877	      5.97917404	      6.13858998	     -2.74124282	      0.00000000	    -12.14167166	     -2.05761447	     11.46557623
      6.35000000	     -0.64267963	     -5.47037714	     -9.38233015	     -1.02784385	      0.65745727	      0.20239269	    -13.48471181	     10.12014022	      0.35775651	    -10.21310319	     21.41589376	     -9.42406025	      0.00000000	     21.55316930	    -11.20106418	      1.98621507	      5.90317495	      6.50769286	     -2.73214145	      0.00000000	    -11.73936469	     -2.33202085	     11.99571821
      6.36000000	     -0.72798419	     -5.33784026	    -10.05118727	     -1.01739564	      0.65708408	      0.20207386	    -13.97995728	      9.55707429	      0.42980591	    -10.87919062	     20.86568278	     -9.15667559	      0.00000000	     21.44002868	    -11.20850732	      0.83841113	      5.08534826	      6.79408835	     -2.93489949	      0.00000000	    -11.25913895	     -2.54396862	     12.39829761
      6.37000000	     -0.80956210	     -5.23369499	    -10.56584606	     -1.00667287	      0.65677520	      0.20150123	    -14.50667596	      9.00923752	      0.40363502	    -11.48895836	     20.05581023	     -8.79872130	      0.00000000	     21.44726619	    -11.16177765	     -0.05913542	      3.65848304	      6.93642252	     -3.46272930	      0.00000000	    -10.76968520	     -2.67698164	     12.70148153
      6.38000000	     -0.92776067	     -5.10722325	    -10.97467281	     -0.99562858	      0.65648474	      0.20073535	    -15.05212225	      8.43871154	      0.40217798	    -11.98939088	     19.23149930	     -8.44978643	      0.00000000	     21.59438150	    -11.03136200	     -1.10620382	      1.80246273	      6.74765889	     -4.13583876	      0.00000000	    -10.18963569	     -2.78202540	     12.89143066
      6.39000000	     -1.04504123	     -4.97376076	    -11.24801926	     -0.98429298	      0.65624587	      0.19974849	    -15.63688557	      7.85579858	      0.27812398	    -12.39765262	     18.14393782	     -8.02573792	      0.00000000	     21.75574483	    -10.83652031	     -2.01141646	     -0.17219206	      6.20563012	     -5.01879572	      0.00000000	     -9.57576884	     -2.84917619	     13.00269806
      6.40000000	     -1.31014590	     -4.76703393	    -11.38916265	     -0.97269973	      0.65594220	      0.19860662	    -16.12228466	      7.26488323	      0.24170276	    -12.65827937	     16.89805632	     -7.87897773	      0.00000000	     21.95880174	    -10.51839747	     -2.20687252	     -1.83367859	      4.56388339	     -7.37140709	      0.00000000	     -8.71752032	     -2.94886787	     13.03162683
      6.41000000	     -1.44492289	     -4.38144780	    -11.35294628	     -0.96095263	      0.65590947	      0.19728390	    -16.70091177	      6.50013818	      0.00935871	    -12.88179578	     15.49313638	     -7.66199456	      0.00000000	     22.00543786	     -9.92328845	     -2.36545514	     -3.20239142	      2.38184373	     -9.70012759	      0.00000000	     -7.96944595	     -3.27791475	     12.89639692
      6.42000000	     -1.57508742	     -3.81288584	    -11.14190463	     -0.94914829	      0.65607821	      0.19583386	    -17.21402319	      5.61361918	     -0.32463239	    -13.11296648	     13.87913878	     -7.56762798	      0.00000000	     22.04662281	     -9.07669733	     -2.30666868	     -4.28806300	     -0.18169541	    -11.95162437	      0.00000000	     -7.19370084	     -3.83161664	     12.60338744
      6.43000000	     -1.62839742	     -3.06895203	    -10.78629020	     -0.93734611	      0.65652316	      0.19429703	    -17.69670499	      4.60030715	     -0.76139255	    -13.43357684	     12.04376344	     -7.62519959	      0.00000000	     22.03381354	     -7.98855855	     -2.04966450	     -5.24988884	     -2.70966236	    -13.81983267	      0.00000000	     -6.50267777	     -4.63484815	     12.19433252
